<svg id="Layer_1" data-name="Layer 1" xmlns="http://www.w3.org/2000/svg" viewBox="0 0 1920 1080"><title>Wordmark</title><path d="M376.29,416.25h61.79a7.84,7.84,0,0,1,7.78,8.78L417.5,660.64a7.83,7.83,0,0,1-7.78,6.9H347.2a7.83,7.83,0,0,1-7.78-8.79l29.09-235.62A7.83,7.83,0,0,1,376.29,416.25Z"/><path d="M505.47,416.37h54.67a11.39,11.39,0,0,1,11.3,12.74L543.93,657.64a11.39,11.39,0,0,1-11.3,10H477.26A11.39,11.39,0,0,1,466,654.89l28.22-228.53A11.38,11.38,0,0,1,505.47,416.37Z"/><path d="M331.36,416.25c-4.18,0-7.07,2.15-8.64,6.44l-46.41,153.8-46.07-153.8q-1.87-6.44-8.13-6.44H163.5a7.45,7.45,0,0,0-5.76,2.21,8.9,8.9,0,0,0-2.37,5.25L131.15,660.33q0,7.45,7.28,7.46h47.94q7.95,0,8.3-7.46L209.4,529.74l38.11,131.44q.17,1.86,2.46,4.15t4.32,2.28h44.55q2,0,4.15-2.37a9.66,9.66,0,0,0,2.45-4.06l37-128a4.78,4.78,0,0,0,.18-.9l13.52-109.49a5.81,5.81,0,0,0-5.76-6.52Z"/><path d="M625.81,667.79a67.93,67.93,0,0,0,28.37-6.11,76.06,76.06,0,0,0,23.55-16.51,79.81,79.81,0,0,0,16-24.22,73.29,73.29,0,0,0,5.93-29.22A77.13,77.13,0,0,0,692.55,559a83.12,83.12,0,0,0-15.79-23.16,5.7,5.7,0,0,1-.51-7.31,64.82,64.82,0,0,0,8.25-15.69,68.53,68.53,0,0,0,4-23.62,71,71,0,0,0-5.76-28.54,74,74,0,0,0-15.67-23.21,73.17,73.17,0,0,0-23.12-15.58,70.54,70.54,0,0,0-28.11-5.68H590.21a5.63,5.63,0,0,0-5.58,4.95L580,459.93a5.62,5.62,0,0,0,5.58,6.29h12.24a27.07,27.07,0,0,1,10.36,1.95,24.5,24.5,0,0,1,8.15,5.34,23.89,23.89,0,0,1,7.13,17.27,24.78,24.78,0,0,1-1.94,9.91,24.31,24.31,0,0,1-5.35,7.79,23,23,0,0,1-8.24,5.08,30.5,30.5,0,0,1-10.62,1.78h-19a5.63,5.63,0,0,0-5.58,4.95l-4.13,34.32a5.62,5.62,0,0,0,5.58,6.29h32.12a22.19,22.19,0,0,1,10.44,2.54A28.55,28.55,0,0,1,625,570a29.89,29.89,0,0,1,5.44,9.06,28.23,28.23,0,0,1,2,10.16A29.62,29.62,0,0,1,625,608.76a27.79,27.79,0,0,1-8.33,6.35,22.88,22.88,0,0,1-10.35,2.37H566a5.63,5.63,0,0,0-5.58,4.95L555,667.54"/><path d="M903.94,578.31q2.71,2.24,7,6a93,93,0,0,0,9.69,7.44,81.31,81.31,0,0,0,16.17,8.49,46.94,46.94,0,0,0,16.82,3,44.1,44.1,0,0,0,13.7-1.83,23.17,23.17,0,0,0,8.73-4.89,17.35,17.35,0,0,0,4.56-7,26.07,26.07,0,0,0,1.36-8.48,12.51,12.51,0,0,0-3.76-8.88,38.93,38.93,0,0,0-9.21-7A77.94,77.94,0,0,0,957.6,560c-4-1.44-7.37-2.64-10.26-3.6a233.79,233.79,0,0,1-33.63-14.49,103.33,103.33,0,0,1-24-17.28,64.73,64.73,0,0,1-14.42-21,65.4,65.4,0,0,1-4.8-25.53,60.32,60.32,0,0,1,6-27,59.45,59.45,0,0,1,17.14-20.8,81.59,81.59,0,0,1,26.83-13.36,121.4,121.4,0,0,1,35.07-4.73,116.72,116.72,0,0,1,28,3.29A106.24,106.24,0,0,1,1009.81,426q5.45,3.21,10.33,6.65a107.57,107.57,0,0,1,8.57,6.64,41.66,41.66,0,0,1,5.85,6.09c1.44,1.92,2.16,3.58,2.16,5a7.46,7.46,0,0,1-1,3.85,24.23,24.23,0,0,1-3.13,4l-24.5,26.11c-1.82,1.82-3.63,2.72-5.45,2.72a6.93,6.93,0,0,1-4.08-1.28,50.18,50.18,0,0,1-4.08-3.2L993,481.25q-3.19-2.73-7.12-5.61a63.68,63.68,0,0,0-8.41-5.2,56.87,56.87,0,0,0-9.45-3.85,34.43,34.43,0,0,0-10.09-1.52A53,53,0,0,0,948,466a27.77,27.77,0,0,0-8.17,2.8,15.58,15.58,0,0,0-5.61,5.05,14.77,14.77,0,0,0,.16,15.38,22.42,22.42,0,0,0,6.73,6.08,62.48,62.48,0,0,0,11.13,5.29q6.64,2.47,15.46,5.36,17,5.61,31.31,11.78a105.33,105.33,0,0,1,24.74,14.57,60.36,60.36,0,0,1,16.26,20.1q5.85,11.7,5.85,28.35a70,70,0,0,1-7.21,31.95,73,73,0,0,1-19.78,24.43,92.39,92.39,0,0,1-29.55,15.62,117.44,117.44,0,0,1-36.52,5.52,103.73,103.73,0,0,1-36.2-6.58A139,139,0,0,1,883.44,634a85.4,85.4,0,0,1-10.81-9.16q-4.41-4.5-7-7.23l-.48-.48a.93.93,0,0,0-.32-.4,1.17,1.17,0,0,1-.32-.24,1,1,0,0,0-.32-.41,1.12,1.12,0,0,1-.32-.23c-2.46-2.68-3.69-4.83-3.69-6.43q0-2.73,3.69-6.11l27.71-26.42q3.36-2.42,5.44-2.41a5.91,5.91,0,0,1,3.05,1A30.61,30.61,0,0,1,903.94,578.31Z"/><path d="M1084.77,424.39a8,8,0,0,1,2-4.89,6.08,6.08,0,0,1,4.88-2.16h47.57a8.15,8.15,0,0,1,5,2,6.17,6.17,0,0,1,2.56,5v76.07h79.6V424.4a7,7,0,0,1,2-5,6.86,6.86,0,0,1,5.19-2.09h46.81a9.89,9.89,0,0,1,5.59,1.6,5.72,5.72,0,0,1,2.4,5.13V648.14a6.58,6.58,0,0,1-2.08,5.29,8.15,8.15,0,0,1-5.43,1.76h-47.29a7.57,7.57,0,0,1-5.19-1.76,6.7,6.7,0,0,1-2-5.29v-91h-79.6v91a6.48,6.48,0,0,1-2.16,5.21,8.71,8.71,0,0,1-5.85,1.84h-47.09q-6.72,0-6.88-6.25Z"/><path d="M1329.66,536.5a121.75,121.75,0,0,1,16.67-61.9,124.09,124.09,0,0,1,19.15-24.91,119.66,119.66,0,0,1,24.76-19.14,126,126,0,0,1,29.25-12.33,122.78,122.78,0,0,1,65.15,0A125.66,125.66,0,0,1,1514,430.55a121.72,121.72,0,0,1,44,44.05,127.11,127.11,0,0,1,12.34,29.31,122.93,122.93,0,0,1,0,65.19A123.93,123.93,0,0,1,1558,598.25a120.15,120.15,0,0,1-19.16,24.66A125.08,125.08,0,0,1,1514,642.06a122.65,122.65,0,0,1-123.73,0,124.29,124.29,0,0,1-43.91-43.81A119.11,119.11,0,0,1,1334,569.1,121.33,121.33,0,0,1,1329.66,536.5Zm62-.15a68.08,68.08,0,0,0,4.48,24.82,61.28,61.28,0,0,0,12.56,20.1,58.48,58.48,0,0,0,19.11,13.46,63.22,63.22,0,0,0,48.71,0,58.19,58.19,0,0,0,19.19-13.46,61.28,61.28,0,0,0,12.56-20.1,70.8,70.8,0,0,0,0-49.57,62,62,0,0,0-12.56-20.26,58.62,58.62,0,0,0-19.19-13.62,59.59,59.59,0,0,0-67.82,13.62,62,62,0,0,0-12.56,20.26A68.29,68.29,0,0,0,1391.64,536.35Z"/><path d="M1610.75,424.71a7.88,7.88,0,0,1,1.76-5.37,6.7,6.7,0,0,1,5.29-2h102.34a70,70,0,0,1,20.83,3,71.29,71.29,0,0,1,17.94,8.41,73.19,73.19,0,0,1,14.73,12.82,81.84,81.84,0,0,1,18.1,34.27,78.93,78.93,0,0,1-2.8,47.49,77.46,77.46,0,0,1-14.82,24.51,75.36,75.36,0,0,1-23.06,17.37,67.66,67.66,0,0,1-29.79,6.81h-48.54V648.3q0,6.88-7.36,6.89H1617.8a7.51,7.51,0,0,1-5.13-1.68q-1.92-1.68-1.92-5.21Zm120.61,70.15a28.76,28.76,0,0,0-1.69-9.61,26.82,26.82,0,0,0-4.88-8.57,26,26,0,0,0-7.77-6.16,21.75,21.75,0,0,0-10.33-2.41h-34v53.5h34a23,23,0,0,0,10.41-2.32,24.18,24.18,0,0,0,7.77-6,26.54,26.54,0,0,0,4.8-8.49A29.6,29.6,0,0,0,1731.36,494.86Z"/></svg>